<svg xmlns="http://www.w3.org/2000/svg" xmlns:xlink="http://www.w3.org/1999/xlink" version="1.1" x="0px" y="0px" viewBox="0 0 512 640" style="enable-background:new 0 0 512 512;" xml:space="preserve"><g><g><g><path d="M255.996,0c-47.372,0-93.252,20.134-129.188,56.692c-34.023,34.615-53.647,78.525-53.827,120.47     c-0.179,41.271,32.988,114.046,95.913,210.454C204.625,442.36,240.76,490.47,257.308,512     c16.387-21.654,52.166-70.018,87.48-124.908c62.18-96.648,94.762-169.207,94.225-209.826C437.905,93.589,359.4,0,255.996,0z      M255.996,323.479c-81.188,0-147.242-66.056-147.242-147.245c0-81.191,66.054-147.246,147.242-147.246     c81.194,0,147.245,66.624,147.245,147.246C403.241,257.423,337.188,323.479,255.996,323.479z"/></g><g><rect x="204.051" y="250.017" width="38.009" height="9.5"/><rect x="246.81" y="159.745" width="19.005" height="99.773"/><rect x="204.051" y="159.745" width="38.009" height="85.521"/><rect x="180.294" y="159.745" width="19.005" height="99.773"/><polygon points="310.951,264.27 268.188,264.27 244.436,264.27 201.675,264.27 177.92,264.27 166.041,264.27 166.041,278.523      346.583,278.523 346.583,264.27 334.704,264.27    "/><rect x="270.566" y="250.017" width="38.007" height="9.5"/><path d="M201.675,154.996h42.761h23.753h42.763h23.753h18.035l-96.427-46.119V95.607h23.755V81.354h-23.755v-4.752h-4.751v32.236     c-18.662,8.743-34.137,16.751-49.121,24.506c-14.084,7.288-27.519,14.241-43.179,21.651h18.658H201.675z M255.864,121.738     c6.551,0,11.879,5.328,11.879,11.876c0,6.549-5.328,11.877-11.879,11.877c-6.547,0-11.875-5.328-11.875-11.877     C243.989,127.066,249.317,121.738,255.864,121.738z"/><rect x="313.325" y="159.745" width="19.005" height="99.773"/><rect x="270.566" y="159.745" width="38.007" height="85.521"/><path d="M255.864,140.741c3.932,0,7.128-3.196,7.128-7.126c0-3.93-3.196-7.126-7.128-7.126c-3.928,0-7.126,3.196-7.126,7.126     C248.738,137.545,251.937,140.741,255.864,140.741z"/></g></g></g><text x="0" y="527" fill="#000000" font-size="5px" font-weight="bold" font-family="'Helvetica Neue', Helvetica, Arial-Unicode, Arial, Sans-serif">Created by Flatart</text><text x="0" y="532" fill="#000000" font-size="5px" font-weight="bold" font-family="'Helvetica Neue', Helvetica, Arial-Unicode, Arial, Sans-serif">from the Noun Project</text></svg>