<svg xmlns="http://www.w3.org/2000/svg" data-name="Gym Pin" viewBox="0 0 37.87 65" x="0px" y="0px"><title>gym-pin</title><path d="M192,6a18.94,18.94,0,0,0-18.94,18.94c0,9.14,14.47,28,18.11,32.63a1,1,0,0,0,1.65,0c3.64-4.61,18.11-23.49,18.11-32.63A18.94,18.94,0,0,0,192,6Zm1.64,31.46a12.63,12.63,0,0,1-14.16-14.16c0.65-5.19,5.69-10.22,10.88-10.88a12.63,12.63,0,0,1,14.16,14.16C203.87,31.77,198.83,36.8,193.64,37.46Zm4.28-19.94,1.88,2a1,1,0,0,1,0,1.41l-1,.94,0.71,0.75a1.18,1.18,0,0,1-1.71,1.63l-1.52-1.6-6.85,6.51,1.52,1.6a1.18,1.18,0,0,1-1.71,1.63l-0.71-.75-1,.94a1,1,0,0,1-1.41,0l-1.88-2a1,1,0,0,1,0-1.41l1-.94-0.92-1A1.18,1.18,0,0,1,186,25.6l1.73,1.82,6.85-6.51-1.73-1.82a1.18,1.18,0,0,1,1.71-1.63l0.92,1,1-.94A1,1,0,0,1,197.92,17.52Z" transform="translate(-173.06 -6)"/><text x="0" y="67" fill="#000000" font-size="5px" font-weight="bold" font-family="'Helvetica Neue', Helvetica, Arial-Unicode, Arial, Sans-serif">Created by Isma Ruiz</text><text x="0" y="72" fill="#000000" font-size="5px" font-weight="bold" font-family="'Helvetica Neue', Helvetica, Arial-Unicode, Arial, Sans-serif">from the Noun Project</text></svg>