<svg xmlns="http://www.w3.org/2000/svg" xmlns:xlink="http://www.w3.org/1999/xlink" version="1.1" x="0px" y="0px" viewBox="0 0 100 125" style="enable-background:new 0 0 100 100;" xml:space="preserve"><g><path d="M57.1,33.3v-3.9c0-0.1-0.1-0.1-0.1-0.2c0.2,0,0.4-0.2,0.4-0.4c0-0.3-0.2-0.4-0.5-0.4h-2c-0.3,0-0.5,0.2-0.5,0.4   c0,0.2,0.1,0.4,0.4,0.4c0,0.1-0.1,0.1-0.1,0.2v1.7l-3.9-4c0,0,0,0,0-0.1c-0.2-0.2-0.5-0.3-0.8-0.3c-0.3,0-0.6,0.1-0.8,0.3   c0,0,0,0-0.1,0.1L37.6,38.6c-0.4,0.4-0.4,1.1,0,1.6c0.4,0.4,1.1,0.4,1.6,0L50,29.4l10.8,10.8c0.4,0.4,1.1,0.4,1.6,0   c0.4-0.4,0.5-1.1,0.1-1.6L57.1,33.3z"/><path d="M40.8,39.8v11.4c0,0.4,0.3,0.8,0.9,0.8h4.8c0.4,0,0.7-0.4,0.7-0.8v-7.7c0-0.4,0.4-0.8,0.8-0.8H52c0.4,0,0.8,0.4,0.8,0.8   v7.7c0,0.4,0.2,0.8,0.7,0.8h4.8c0.5,0,0.9-0.3,0.9-0.8V39.8L50,30.5L40.8,39.8z"/><path d="M50,10c-16.5,0-29.8,13.3-29.8,29.8S50,90,50,90s29.8-33.7,29.8-50.2S66.5,10,50,10z M50,60.8c-11.5,0-20.9-9.3-20.9-20.9   S38.5,19.1,50,19.1S70.9,28.4,70.9,40S61.5,60.8,50,60.8z"/></g><text x="0" y="115" fill="#000000" font-size="5px" font-weight="bold" font-family="'Helvetica Neue', Helvetica, Arial-Unicode, Arial, Sans-serif">Created by Musmellow</text><text x="0" y="120" fill="#000000" font-size="5px" font-weight="bold" font-family="'Helvetica Neue', Helvetica, Arial-Unicode, Arial, Sans-serif">from the Noun Project</text></svg>