<svg xmlns="http://www.w3.org/2000/svg" xmlns:xlink="http://www.w3.org/1999/xlink" version="1.1" x="0px" y="0px" viewBox="0 0 100 125" enable-background="new 0 0 100 100" xml:space="preserve"><path d="M50,2.248c-20.046,0-36.354,16.309-36.355,36.355c0,4.068,0.667,8.062,1.982,11.873  c6.04,17.401,16.431,33.138,30.017,45.479c1.166,1.159,2.712,1.797,4.356,1.797c1.645,0,3.189-0.638,4.322-1.766  c13.617-12.37,24.009-28.108,30.051-45.513c1.314-3.81,1.982-7.805,1.982-11.871C86.355,18.557,70.047,2.248,50,2.248z M50,66.109  c-15.241,0-27.64-12.397-27.64-27.637c0-15.24,12.399-27.639,27.64-27.639c15.24,0,27.639,12.397,27.639,27.638  C77.639,53.712,65.24,66.109,50,66.109z"/><path d="M67.909,45.202L57.736,35.028v-2.251l0.01,0.017c0.276,0.479,0.889,0.641,1.366,0.366c0.479-0.276,0.643-0.888,0.366-1.366  l-8.613-14.917c-0.357-0.619-1.375-0.619-1.732,0l-8.612,14.917c-0.276,0.479-0.112,1.09,0.366,1.366  c0.347,0.2,1.022,0.229,1.366-0.366l0.01-0.017v2.251c0,0-8.08,8.08-8.081,8.08l-2.093,2.093c-0.391,0.391-0.391,1.023,0,1.414  s1.023,0.391,1.414,0l0.387-0.387v7.929c0,0.553,0.448,1,1,1h30.219c0.553,0,1-0.447,1-1v-7.929l0.387,0.387  c0.424,0.424,1.059,0.356,1.414,0C68.3,46.225,68.3,45.592,67.909,45.202z M35.89,44.229l6.373-6.373v15.302H35.89V44.229z   M44.263,29.313l5.736-9.936l5.737,9.937v23.845h-1.897v-6.747c0-2.117-1.723-3.839-3.84-3.839c-2.117,0-3.839,1.722-3.839,3.839  v6.747h-1.897V29.313z M51.839,53.158H48.16v-6.747c0-1.014,0.825-1.839,1.839-1.839c1.015,0,1.84,0.825,1.84,1.839V53.158z   M64.108,53.158h-6.372V37.856l6.372,6.373V53.158z"/><text x="0" y="115" fill="#000000" font-size="5px" font-weight="bold" font-family="'Helvetica Neue', Helvetica, Arial-Unicode, Arial, Sans-serif">Created by habione 404</text><text x="0" y="120" fill="#000000" font-size="5px" font-weight="bold" font-family="'Helvetica Neue', Helvetica, Arial-Unicode, Arial, Sans-serif">from the Noun Project</text></svg>