<svg xmlns="http://www.w3.org/2000/svg" xmlns:xlink="http://www.w3.org/1999/xlink" version="1.1" x="0px" y="0px" viewBox="0 0 99 123.75" enable-background="new 0 0 99 99" xml:space="preserve"><path fill-rule="evenodd" clip-rule="evenodd" d="M44.828,33.738c-0.726-0.711-1.897-0.707-2.613,0.009l-0.129,0.129  c-0.717,0.716-0.71,1.874,0.019,2.587l3.962,3.861l0.077,0.075l0.054,0.053c0.721,0.703,1.866,0.681,2.562-0.047l9.316-9.589  c0.713-0.743,0.71-1.93-0.003-2.655l-0.131-0.13c-0.717-0.728-1.878-0.711-2.592,0.037l-7.928,8.2L44.828,33.738z M23.751,35.716  c0.183,11.854,26.373,53.941,26.373,53.941s26.189-43.006,26.373-53.941C76.741,21.153,64.689,9.343,50.124,9.343  C35.56,9.343,23.525,21.153,23.751,35.716z M33.491,34.337c0-9.033,7.325-16.356,16.357-16.356c9.033,0,16.356,7.323,16.356,16.356  c0,9.034-7.323,16.358-16.356,16.358C40.816,50.695,33.491,43.371,33.491,34.337z"/><text x="0" y="114" fill="#000000" font-size="5px" font-weight="bold" font-family="'Helvetica Neue', Helvetica, Arial-Unicode, Arial, Sans-serif">Created by Hakan Yalcin</text><text x="0" y="119" fill="#000000" font-size="5px" font-weight="bold" font-family="'Helvetica Neue', Helvetica, Arial-Unicode, Arial, Sans-serif">from the Noun Project</text></svg>