<svg xmlns="http://www.w3.org/2000/svg" xmlns:xlink="http://www.w3.org/1999/xlink" version="1.1" x="0px" y="0px" viewBox="0 0 100 125" enable-background="new 0 0 100 100" xml:space="preserve"><g><path fill="#000000" d="M600,568.286c-13.807,0-25,11.193-25,25c0,13.808,25,38.428,25,38.428s25-24.62,25-38.428   C625,579.479,613.807,568.286,600,568.286z M600,612.803c-10.925,0-19.782-8.856-19.782-19.781   c0-10.926,8.857-19.782,19.782-19.782s19.782,8.856,19.782,19.782C619.782,603.946,610.925,612.803,600,612.803z"/><path fill="#000000" d="M610.347,590.324h-0.574l-1.305-4.859c-0.136-0.619-0.654-1.054-1.462-1.054h-14.297   c-0.809,0-1.368,0.449-1.463,1.054l-1.125,4.859h-0.468c-1.055,0-1.91,0.712-1.91,1.59v5.011c0,0.787,0.688,1.439,1.591,1.566   v1.341c0,0.878,0.711,1.59,1.59,1.59h2.385c0.878,0,1.59-0.712,1.59-1.59v-1.316h10.203v1.316c0,0.878,0.712,1.59,1.59,1.59h2.385   c0.878,0,1.59-0.712,1.59-1.59v-1.341c0.902-0.127,1.591-0.779,1.591-1.566v-5.011   C612.257,591.036,611.401,590.324,610.347,590.324z M592.476,586.575c0.082-0.501,0.563-0.92,1.259-0.92h12.307   c0.695,0,1.182,0.419,1.259,0.92l0.991,3.749h-16.67L592.476,586.575z M592.646,596.928c-1.434,0-2.596-1.162-2.596-2.595   c0-1.434,1.162-2.596,2.596-2.596c1.433,0,2.595,1.162,2.595,2.596C595.241,595.766,594.079,596.928,592.646,596.928z    M607.354,596.928c-1.433,0-2.595-1.162-2.595-2.595c0-1.434,1.162-2.596,2.595-2.596c1.434,0,2.596,1.162,2.596,2.596   C609.949,595.766,608.787,596.928,607.354,596.928z"/></g><g><path fill="#000000" d="M50,18.286c-13.807,0-25,11.193-25,25c0,13.808,25,38.428,25,38.428s25-24.62,25-38.428   C75,29.479,63.807,18.286,50,18.286z M50,62.803c-10.925,0-19.782-8.856-19.782-19.782c0-10.925,8.857-19.782,19.782-19.782   s19.782,8.857,19.782,19.782C69.782,53.946,60.925,62.803,50,62.803z"/><path fill="#000000" d="M39.554,37.745V50.36c0,0.844,0.684,1.527,1.527,1.527h1.646V36.218h-1.646   C40.237,36.218,39.554,36.902,39.554,37.745z"/><path fill="#000000" d="M58.919,36.218h-1.646v15.669h1.646c0.844,0,1.527-0.684,1.527-1.527V37.745   C60.446,36.902,59.763,36.218,58.919,36.218z"/><path fill="#000000" d="M53.665,35.406c0-0.607-0.403-1.1-0.9-1.1h-5.529c-0.497,0-0.9,0.492-0.9,1.1v0.813h-2.899v15.669h13.129   V36.218h-2.899V35.406z M47.769,35.314h4.463c0.357,0,0.654,0.39,0.715,0.904h-5.893C47.114,35.704,47.411,35.314,47.769,35.314z    M54.132,48.796l1.267,0.184l-0.916,0.894l0.216,1.262l-1.133-0.596l-1.133,0.596l0.216-1.262l-0.916-0.894l1.267-0.184   l0.566-1.148L54.132,48.796z"/></g><text x="0" y="115" fill="#000000" font-size="5px" font-weight="bold" font-family="'Helvetica Neue', Helvetica, Arial-Unicode, Arial, Sans-serif">Created by asianson.design</text><text x="0" y="120" fill="#000000" font-size="5px" font-weight="bold" font-family="'Helvetica Neue', Helvetica, Arial-Unicode, Arial, Sans-serif">from the Noun Project</text></svg>